<!DOCTYPE svg PUBLIC "-//W3C//DTD SVG 20010904//EN" "http://www.w3.org/TR/2001/REC-SVG-20010904/DTD/svg10.dtd">
<svg version="1.0" xmlns="http://www.w3.org/2000/svg" width="497px" height="355px" viewBox="0 0 4970 3550" preserveAspectRatio="xMidYMid meet">
<g id="layer101" fill="#236d00" stroke="none">
 <path d="M1645 3544 c-982 -31 -1530 -73 -1627 -125 -17 -9 -18 -85 -18 -1509 0 -825 3 -1500 8 -1500 4 0 112 198 241 440 128 242 236 440 240 440 3 0 93 -164 200 -365 106 -201 196 -365 200 -365 3 0 93 164 200 365 106 201 196 365 200 365 3 0 93 -164 200 -365 106 -201 196 -365 200 -365 3 0 76 164 161 365 85 200 157 361 161 357 4 -4 112 -294 240 -644 128 -351 235 -638 238 -638 3 0 112 290 241 645 129 354 237 645 240 645 3 0 74 -165 159 -365 85 -201 157 -365 160 -365 4 0 94 164 201 365 106 201 196 365 200 365 3 0 93 -164 200 -365 107 -201 197 -365 200 -365 3 0 93 164 200 365 107 201 197 365 200 365 4 0 108 -192 233 -427 125 -236 231 -435 237 -443 6 -10 10 501 10 1488 l0 1503 -32 13 c-101 42 -473 77 -1123 107 -214 10 -1947 20 -2170 13z"/>
 </g>
<g id="layer102" fill="#5a3302" stroke="none">
 <path d="M1645 3544 c-982 -31 -1530 -73 -1627 -125 -17 -9 -18 -85 -18 -1509 0 -825 3 -1500 8 -1500 4 0 112 198 241 440 128 242 236 440 240 440 3 0 93 -164 200 -365 106 -201 196 -365 200 -365 3 0 93 164 200 365 106 201 196 365 200 365 3 0 93 -164 200 -365 106 -201 196 -365 200 -365 3 0 76 164 161 365 85 200 157 361 161 357 4 -4 112 -294 240 -644 128 -351 235 -638 238 -638 3 0 112 290 241 645 129 354 237 645 240 645 3 0 74 -165 159 -365 85 -201 157 -365 160 -365 4 0 94 164 201 365 106 201 196 365 200 365 3 0 93 -164 200 -365 107 -201 197 -365 200 -365 3 0 93 164 200 365 107 201 197 365 200 365 4 0 108 -192 233 -427 125 -236 231 -435 237 -443 6 -10 10 501 10 1488 l0 1503 -32 13 c-101 42 -473 77 -1123 107 -214 10 -1947 20 -2170 13z m-498 -1029 c118 -59 165 -204 104 -322 -38 -75 -32 -78 -216 107 -186 188 -184 183 -100 221 60 28 149 25 212 -6z m2887 11 c148 -62 194 -246 94 -379 -12 -16 -29 -1 -187 157 l-174 174 54 31 c45 25 65 31 117 31 34 0 77 -6 96 -14z"/>
 </g>
<g id="layer103" fill="#329808" stroke="none">
 <path d="M0 1901 c0 -820 3 -1491 8 -1491 4 0 112 198 241 440 128 242 236 440 240 440 3 0 93 -164 200 -365 106 -201 196 -365 200 -365 3 0 93 164 200 365 106 201 196 365 200 365 3 0 93 -164 200 -365 106 -201 196 -365 200 -365 3 0 76 164 161 365 85 200 157 361 161 357 4 -4 112 -294 240 -644 128 -351 235 -638 238 -638 3 0 112 290 241 645 129 354 237 645 240 645 3 0 74 -165 159 -365 85 -201 157 -365 160 -365 4 0 94 164 201 365 106 201 196 365 200 365 3 0 93 -164 200 -365 107 -201 197 -365 200 -365 3 0 93 164 200 365 107 201 197 365 200 365 4 0 108 -192 233 -427 125 -236 231 -435 237 -443 6 -10 10 497 10 1478 l0 1493 -29 -16 c-87 -44 -546 -86 -1296 -117 -367 -15 -1780 -14 -2255 1 -807 27 -1316 72 -1377 122 -11 10 -13 -246 -13 -1480z m1106 634 c146 -43 216 -212 143 -349 -13 -25 -29 -48 -35 -50 -12 -5 -344 324 -344 340 0 12 55 46 100 61 48 16 78 16 136 -2z m2939 -11 c140 -66 182 -234 91 -368 l-19 -28 -173 173 c-186 186 -184 183 -120 216 72 37 153 40 221 7z"/>
 </g>
<g id="layer104" fill="#d31609" stroke="none">
 <path d="M0 1901 c0 -820 3 -1491 8 -1491 4 0 112 198 241 440 128 242 236 440 240 440 3 0 93 -164 200 -365 106 -201 196 -365 200 -365 3 0 93 164 200 365 106 201 196 365 200 365 3 0 93 -164 200 -365 106 -201 196 -365 200 -365 3 0 76 164 161 365 85 200 157 361 161 357 4 -4 112 -294 240 -644 128 -351 235 -638 238 -638 3 0 112 290 241 645 129 354 237 645 240 645 3 0 74 -165 159 -365 85 -201 157 -365 160 -365 4 0 94 164 201 365 106 201 196 365 200 365 3 0 93 -164 200 -365 107 -201 197 -365 200 -365 3 0 93 164 200 365 107 201 197 365 200 365 4 0 108 -192 233 -427 125 -236 231 -435 237 -443 6 -10 10 497 10 1478 l0 1493 -29 -16 c-87 -44 -546 -86 -1296 -117 -367 -15 -1780 -14 -2255 1 -807 27 -1316 72 -1377 122 -11 10 -13 -246 -13 -1480z m1106 634 c184 -55 235 -302 88 -419 -103 -82 -226 -74 -319 19 -80 80 -96 168 -47 265 42 84 44 87 76 106 71 44 127 52 202 29z m2939 -11 c103 -48 164 -176 136 -281 -17 -62 -68 -123 -131 -156 -47 -25 -64 -28 -116 -25 -76 5 -144 43 -189 106 -25 37 -30 55 -33 117 -4 70 -2 78 32 140 39 68 61 88 124 111 46 17 127 12 177 -12z"/>
 </g>
<g id="layer105" fill="#df5e0b" stroke="none">
 <path d="M0 1901 c0 -820 3 -1491 8 -1491 4 0 112 198 241 440 128 242 236 440 240 440 3 0 93 -164 200 -365 106 -201 196 -365 200 -365 3 0 93 164 200 365 106 201 196 365 200 365 3 0 93 -164 200 -365 106 -201 196 -365 200 -365 3 0 76 164 161 365 85 200 157 361 161 357 4 -4 112 -294 240 -644 128 -351 235 -638 238 -638 3 0 112 290 241 645 129 354 237 645 240 645 3 0 74 -165 159 -365 85 -201 157 -365 160 -365 4 0 94 164 201 365 106 201 196 365 200 365 3 0 93 -164 200 -365 107 -201 197 -365 200 -365 3 0 93 164 200 365 107 201 197 365 200 365 4 0 108 -192 233 -427 125 -236 231 -435 237 -443 6 -10 10 497 10 1478 l0 1493 -29 -16 c-87 -44 -546 -86 -1296 -117 -367 -15 -1780 -14 -2255 1 -807 27 -1316 72 -1377 122 -11 10 -13 -246 -13 -1480z m2729 755 c166 -166 231 -238 226 -247 -5 -8 -110 -162 -234 -343 l-226 -329 -3 224 -2 225 -230 114 c-127 63 -230 117 -230 120 0 5 452 466 460 468 3 1 110 -103 239 -232z m-1623 -121 c184 -55 235 -302 88 -419 -103 -82 -226 -74 -319 19 -80 80 -96 168 -47 265 42 84 44 87 76 106 71 44 127 52 202 29z m2939 -11 c103 -48 164 -176 136 -281 -17 -62 -68 -123 -131 -156 -47 -25 -64 -28 -116 -25 -76 5 -144 43 -189 106 -25 37 -30 55 -33 117 -4 70 -2 78 32 140 39 68 61 88 124 111 46 17 127 12 177 -12z"/>
 </g>
<g id="layer106" fill="#f07e0c" stroke="none">
 <path d="M4962 3195 l-2 -200 -440 -450 c-287 -293 -453 -456 -478 -467 -47 -22 -141 -23 -190 -2 -89 37 -146 124 -146 224 0 64 3 73 61 173 6 11 31 32 55 48 54 34 820 803 793 796 -27 -8 -267 -26 -516 -40 l-206 -12 -527 -515 -526 -515 -173 -252 c-94 -139 -174 -253 -177 -252 -4 0 -384 552 -465 674 -8 12 39 63 225 250 129 129 239 235 245 235 5 0 88 78 185 174 l175 174 -690 6 c-1162 10 -1964 56 -2124 122 -18 8 -35 14 -37 14 -2 0 -4 -668 -4 -1485 0 -817 3 -1485 8 -1485 4 0 112 198 241 440 128 242 236 440 240 440 3 0 93 -164 200 -365 106 -201 196 -365 200 -365 3 0 93 164 200 365 106 201 196 365 200 365 3 0 93 -164 200 -365 106 -201 196 -365 200 -365 3 0 76 164 161 365 85 200 157 361 161 357 4 -4 112 -294 240 -644 128 -351 235 -638 238 -638 3 0 112 290 241 645 129 354 237 645 240 645 3 0 74 -165 159 -365 85 -201 157 -365 160 -365 4 0 94 164 201 365 106 201 196 365 200 365 3 0 93 -164 200 -365 107 -201 197 -365 200 -365 3 0 93 164 200 365 107 201 197 365 200 365 3 0 112 -199 241 -442 l234 -442 3 747 c1 411 1 1083 -1 1494 -1 412 -3 658 -5 548z m-3815 -669 c91 -46 138 -134 131 -245 -4 -85 -37 -139 -113 -186 -43 -27 -57 -30 -125 -30 -68 0 -82 3 -126 30 -30 19 -60 49 -79 80 -27 43 -30 57 -30 124 1 76 2 80 54 166 9 16 42 43 72 58 47 25 62 28 119 24 36 -2 80 -11 97 -21z"/>
 </g>

</svg>